<svg preserveAspectRatio="none" width="100%" height="100%" overflow="visible" style="display: block;" viewBox="0 0 13 13" fill="none" xmlns="http://www.w3.org/2000/svg">
<g id="icon_insta_brown.svg" clip-path="url(#clip0_0_8)">
<path id="&#227;&#131;&#145;&#227;&#130;&#185; 81" d="M9.2 13H3.8C3.30081 13 2.80651 12.9016 2.34534 12.7106C1.88417 12.5195 1.46518 12.2394 1.11229 11.8863C0.759399 11.5332 0.479534 11.1141 0.288684 10.6528C0.0978339 10.1915 -0.000262206 9.69719 5.26364e-07 9.198V3.798C0.000530777 2.79052 0.401121 1.82449 1.1137 1.11229C1.82628 0.400081 2.79252 -1.3954e-07 3.8 0L9.2 0C9.69902 0 10.1932 0.0982899 10.6542 0.289258C11.1152 0.480226 11.5341 0.760132 11.887 1.11299C12.2399 1.46586 12.5198 1.88477 12.7107 2.3458C12.9017 2.80684 13 3.30098 13 3.8V9.2C13 10.2078 12.5996 11.1744 11.887 11.887C11.1744 12.5996 10.2078 13 9.2 13ZM3.8 1.206C3.11338 1.20864 2.45568 1.48277 1.97045 1.96857C1.48522 2.45436 1.21184 3.11238 1.21 3.799V9.199C1.20974 9.88627 1.48243 10.5455 1.96812 11.0318C2.45381 11.518 3.11273 11.7915 3.8 11.792H9.2C9.88662 11.7891 10.5442 11.5147 11.0293 11.0287C11.5143 10.5427 11.7874 9.88462 11.789 9.198V3.798C11.7869 3.11173 11.5135 2.45412 11.0286 1.96856C10.5436 1.48301 9.88627 1.2089 9.2 1.206H3.8Z" fill="var(--fill-0, #9A001D)"/>
<path id="&#227;&#131;&#145;&#227;&#130;&#185; 82" d="M10.792 3.053C10.7845 3.27037 10.6929 3.47633 10.5364 3.62745C10.38 3.77857 10.171 3.86304 9.9535 3.86304C9.736 3.86304 9.527 3.77857 9.37057 3.62745C9.21414 3.47633 9.12251 3.27037 9.115 3.053C9.12251 2.83563 9.21414 2.62967 9.37057 2.47855C9.527 2.32743 9.736 2.24296 9.9535 2.24296C10.171 2.24296 10.38 2.32743 10.5364 2.47855C10.6929 2.62967 10.7845 2.83563 10.792 3.053Z" fill="var(--fill-0, #9A001D)"/>
<path id="&#227;&#131;&#145;&#227;&#130;&#185; 83" d="M6.491 9.76C5.84598 9.76099 5.21516 9.57061 4.67838 9.21295C4.14159 8.8553 3.72297 8.34644 3.47549 7.75079C3.22802 7.15513 3.1628 6.49944 3.2881 5.86671C3.41341 5.23397 3.7236 4.65263 4.17942 4.19625C4.63524 3.73987 5.2162 3.42897 5.84878 3.30289C6.48136 3.17681 7.13712 3.24122 7.73308 3.48796C8.32904 3.73471 8.83841 4.15271 9.19673 4.68905C9.55504 5.22539 9.7462 5.85598 9.746 6.501C9.74389 7.364 9.40041 8.19111 8.79055 8.80172C8.18068 9.41233 7.354 9.75683 6.491 9.76ZM6.491 4.417C6.07813 4.41601 5.67425 4.53756 5.33051 4.76626C4.98677 4.99496 4.71863 5.32052 4.56003 5.70171C4.40144 6.08291 4.35954 6.50259 4.43962 6.90762C4.51971 7.31265 4.71818 7.6848 5.00991 7.97696C5.30165 8.26911 5.67351 8.46812 6.07843 8.54879C6.48334 8.62946 6.90308 8.58816 7.28451 8.43011C7.66593 8.27207 7.99187 8.00439 8.22107 7.66098C8.45026 7.31757 8.57239 6.91387 8.572 6.501C8.57226 5.94863 8.35323 5.41876 7.96302 5.0278C7.57282 4.63685 7.04336 4.41779 6.491 4.417Z" fill="var(--fill-0, #9A001D)"/>
</g>
<defs>
<clipPath id="clip0_0_8">
<rect width="13" height="13" fill="white"/>
</clipPath>
</defs>
</svg>
